<?xml version="1.0" encoding="UTF-8" standalone="no"?>
<svg
   height="16px"
   viewBox="0 0 16 16"
   width="16px"
   version="1.1"
   id="svg13"
   sodipodi:docname="settings-symbolic.svg"
   inkscape:version="1.3 (0e150ed6c4, 2023-07-21)"
   xmlns:inkscape="http://www.inkscape.org/namespaces/inkscape"
   xmlns:sodipodi="http://sodipodi.sourceforge.net/DTD/sodipodi-0.dtd"
   xmlns="http://www.w3.org/2000/svg"
   xmlns:svg="http://www.w3.org/2000/svg">
  <defs
     id="defs13" />
  <sodipodi:namedview
     id="namedview13"
     pagecolor="#505050"
     bordercolor="#ffffff"
     borderopacity="1"
     inkscape:showpageshadow="0"
     inkscape:pageopacity="0"
     inkscape:pagecheckerboard="1"
     inkscape:deskcolor="#d1d1d1"
     inkscape:zoom="27.289902"
     inkscape:cx="7.7134757"
     inkscape:cy="9.5090117"
     inkscape:window-width="1920"
     inkscape:window-height="1014"
     inkscape:window-x="0"
     inkscape:window-y="29"
     inkscape:window-maximized="1"
     inkscape:current-layer="svg13" />
  <filter
     id="a"
     height="1"
     width="1"
     x="0"
     y="0">
    <feColorMatrix
       color-interpolation-filters="sRGB"
       values="0 0 0 0 1 0 0 0 0 1 0 0 0 0 1 0 0 0 1 0"
       id="feColorMatrix1" />
  </filter>
  <mask
     id="b">
    <g
       filter="url(#a)"
       id="g1">
      <path
         d="m -1.6 -1.6 h 19.2 v 19.2 h -19.2 z"
         fill-opacity="0.5"
         id="path1" />
    </g>
  </mask>
  <clipPath
     id="c">
    <path
       d="m 0 0 h 1600 v 1200 h -1600 z"
       id="path2" />
  </clipPath>
  <mask
     id="d">
    <g
       filter="url(#a)"
       id="g3">
      <path
         d="m -1.6 -1.6 h 19.2 v 19.2 h -19.2 z"
         fill-opacity="0.7"
         id="path3" />
    </g>
  </mask>
  <clipPath
     id="e">
    <path
       d="m 0 0 h 1600 v 1200 h -1600 z"
       id="path4" />
  </clipPath>
  <mask
     id="f">
    <g
       filter="url(#a)"
       id="g5">
      <path
         d="m -1.6 -1.6 h 19.2 v 19.2 h -19.2 z"
         fill-opacity="0.35"
         id="path5" />
    </g>
  </mask>
  <clipPath
     id="g">
    <path
       d="m 0 0 h 1600 v 1200 h -1600 z"
       id="path6" />
  </clipPath>
  <path
     d="m 7.5 1.019531 c -0.550781 0 -0.996094 0.445313 -0.996094 0.996094 v 0.453125 c -0.472656 0.128906 -0.929687 0.320312 -1.355468 0.566406 l -0.324219 -0.324218 c -0.390625 -0.390626 -1.019531 -0.390626 -1.410157 0 l -0.703124 0.707031 c -0.390626 0.390625 -0.390626 1.019531 0 1.410156 l 0.320312 0.320313 c -0.246094 0.425781 -0.433594 0.882812 -0.5625 1.355468 h -0.453125 c -0.550781 0 -0.996094 0.445313 -0.996094 0.996094 v 1 c 0 0.550781 0.445313 0.996094 0.996094 0.996094 h 0.449219 c 0.132812 0.472656 0.320312 0.929687 0.566406 1.355468 l -0.320312 0.320313 c -0.390626 0.390625 -0.390626 1.019531 0 1.410156 l 0.703124 0.707031 c 0.390626 0.390626 1.019532 0.390626 1.410157 0 l 0.320312 -0.320312 c 0.429688 0.242188 0.882813 0.433594 1.359375 0.558594 v 0.457031 c 0 0.550781 0.445313 0.996094 0.996094 0.996094 h 0.996094 c 0.554687 0 1 -0.445313 1 -0.996094 v -0.453125 c 0.472656 -0.128906 0.929687 -0.320312 1.355468 -0.566406 l 0.320313 0.324218 c 0.390625 0.390626 1.019531 0.390626 1.410156 0 l 0.707031 -0.707031 c 0.390626 -0.390625 0.390626 -1.019531 0 -1.410156 l -0.320312 -0.320313 c 0.242188 -0.425781 0.433594 -0.882812 0.558594 -1.355468 h 0.453125 c 0.554687 0 1 -0.445313 1 -0.996094 v -1 c 0 -0.550781 -0.445313 -0.996094 -1 -0.996094 h -0.449219 c -0.128906 -0.472656 -0.320312 -0.929687 -0.566406 -1.355468 l 0.324218 -0.320313 c 0.390626 -0.390625 0.390626 -1.019531 0 -1.410156 l -0.707031 -0.707031 c -0.390625 -0.390626 -1.019531 -0.390626 -1.410156 0 l -0.320313 0.320312 c -0.425781 -0.242188 -0.882812 -0.429688 -1.355468 -0.558594 v -0.457031 c 0 -0.550781 -0.445313 -0.996094 -1 -0.996094 z m 0.515625 3.976563 c 1.660156 0 3 1.34375 3 3 s -1.339844 3 -3 3 c -1.65625 0 -3 -1.34375 -3 -3 s 1.34375 -3 3 -3 z m 0 0"
     fill="#222222"
     id="path7"
     style="fill:#ffffff" />
  <g
     mask="url(#b)"
     id="g9">
    <g
       clip-path="url(#c)"
       transform="matrix(1 0 0 1 -540 -282)"
       id="g8">
      <path
         d="m 550 182 c -0.351562 0.003906 -0.695312 0.101562 -1 0.28125 v 3.4375 c 0.304688 0.179688 0.648438 0.277344 1 0.28125 c 1.105469 0 2 -0.894531 2 -2 s -0.894531 -2 -2 -2 z m 0 5 c -0.339844 0 -0.679688 0.058594 -1 0.175781 v 6.824219 h 4 v -4 c 0 -1.65625 -1.34375 -3 -3 -3 z m 0 0"
         id="path8" />
    </g>
  </g>
  <g
     mask="url(#d)"
     id="g11">
    <g
       clip-path="url(#e)"
       transform="matrix(1 0 0 1 -540 -282)"
       id="g10">
      <path
         d="m 569 182 v 4 c 1.105469 0 2 -0.894531 2 -2 s -0.894531 -2 -2 -2 z m 0 5 v 7 h 3 v -4 c 0 -1.65625 -1.34375 -3 -3 -3 z m 0 0"
         id="path9" />
    </g>
  </g>
  <g
     mask="url(#f)"
     id="g13">
    <g
       clip-path="url(#g)"
       transform="matrix(1 0 0 1 -540 -282)"
       id="g12">
      <path
         d="m 573 182.269531 v 3.449219 c 0.613281 -0.355469 0.996094 -1.007812 1 -1.71875 c 0 -0.714844 -0.382812 -1.375 -1 -1.730469 z m 0 4.90625 v 6.824219 h 2 v -4 c 0 -1.269531 -0.800781 -2.402344 -2 -2.824219 z m 0 0"
         id="path11" />
    </g>
  </g>
</svg>
